<?xml version="1.0" encoding="UTF-8"?>
<!DOCTYPE svg PUBLIC "-//W3C//DTD SVG 1.1//EN" "http://www.w3.org/Graphics/SVG/1.1/DTD/svg11.dtd">
<svg xmlns="http://www.w3.org/2000/svg" version="1.1" width="128px" height="128px" style="shape-rendering:geometricPrecision; text-rendering:geometricPrecision; image-rendering:optimizeQuality; fill-rule:evenodd; clip-rule:evenodd" xmlns:xlink="http://www.w3.org/1999/xlink">
<g><path style="opacity:0.945" fill="#a5ceff" d="M 91.5,115.5 C 102.757,114.976 112.757,118.143 121.5,125C 135.557,138.612 144.224,155.112 147.5,174.5C 142.946,200.559 127.946,217.392 102.5,225C 87.2562,227.402 71.9229,228.068 56.5,227C 50.8557,225.196 48.189,221.362 48.5,215.5C 39.8907,214.388 35.0574,209.388 34,200.5C 32.57,189.806 33.9033,179.473 38,169.5C 44.3047,150.686 55.138,135.186 70.5,123C 77.1618,119.171 84.1618,116.671 91.5,115.5 Z M 91.5,136.5 C 96.8365,136.251 101.836,137.418 106.5,140C 116.132,149.762 122.799,161.262 126.5,174.5C 121.09,193.073 108.757,203.573 89.5,206C 78.8385,206.5 68.1719,206.667 57.5,206.5C 57.9383,203.107 57.1049,200.107 55,197.5C 54.3333,193.833 54.3333,190.167 55,186.5C 59.3384,171.114 66.5051,157.281 76.5,145C 80.9779,141.098 85.9779,138.265 91.5,136.5 Z"/></g>
<g><path style="opacity:0.958" fill="#a5ceff" d="M 201.5,122.5 C 207.094,121.743 211.261,123.743 214,128.5C 212.945,163.819 211.945,199.152 211,234.5C 204.667,243.833 198.333,243.833 192,234.5C 191.5,218.503 191.333,202.503 191.5,186.5C 182.418,186.914 173.418,186.414 164.5,185C 160.251,180.454 159.418,175.287 162,169.5C 163.319,167.513 165.152,166.346 167.5,166C 175.827,165.5 184.16,165.334 192.5,165.5C 192.722,153.116 193.555,140.782 195,128.5C 196.436,125.558 198.603,123.558 201.5,122.5 Z"/></g>
<g><path style="opacity:0.947" fill="#000000" d="M 287.5,140.5 C 305.17,140.333 322.836,140.5 340.5,141C 345.922,141.425 350.089,143.925 353,148.5C 355.594,154.209 356.927,160.209 357,166.5C 357.928,189.83 358.261,213.163 358,236.5C 355.363,247.618 350.03,249.284 342,241.5C 339.816,238.134 338.483,234.467 338,230.5C 337.518,207.476 336.685,184.476 335.5,161.5C 318.314,161.216 301.147,161.549 284,162.5C 274.971,161.466 271.638,156.466 274,147.5C 274.785,145.714 275.951,144.214 277.5,143C 280.952,142.115 284.286,141.282 287.5,140.5 Z"/></g>
<g><path style="opacity:0.95" fill="#000000" d="M 398.5,145.5 C 408.094,144.928 412.427,149.428 411.5,159C 408.216,179.303 404.216,199.47 399.5,219.5C 409.167,219.5 418.833,219.5 428.5,219.5C 429.002,209.809 429.835,200.142 431,190.5C 434.78,184.61 439.947,183.11 446.5,186C 448.049,187.214 449.215,188.714 450,190.5C 450.167,194 450.333,197.5 450.5,201C 446.037,240.535 441.204,280.035 436,319.5C 433.811,329.391 427.978,332.891 418.5,330C 416.071,326.578 415.071,322.744 415.5,318.5C 417.978,292.511 421.311,266.678 425.5,241C 414.814,240.321 404.148,240.488 393.5,241.5C 391.23,256.076 389.73,270.743 389,285.5C 388.025,291.784 385.525,297.284 381.5,302C 372.271,305.214 366.937,302.047 365.5,292.5C 365.818,289.044 366.652,285.711 368,282.5C 368.911,267.747 370.578,253.08 373,238.5C 380.356,209.717 386.69,180.717 392,151.5C 393.436,148.558 395.603,146.558 398.5,145.5 Z"/></g>
<g><path style="opacity:0.944" fill="#000000" d="M 282.5,229.5 C 293.505,229.333 304.505,229.5 315.5,230C 321.837,230.914 327.003,233.747 331,238.5C 331.52,240.289 331.187,241.956 330,243.5C 322.042,248.867 313.209,251.534 303.5,251.5C 305.159,261.752 306.159,272.085 306.5,282.5C 317.511,281.854 328.511,281.354 339.5,281C 346.77,284.005 348.27,288.838 344,295.5C 341.374,298.231 338.207,300.064 334.5,301C 321.797,304.142 309.13,304.142 296.5,301C 291.6,299.098 288.433,295.598 287,290.5C 285.52,277.183 284.187,263.85 283,250.5C 276.134,247.764 273.801,242.764 276,235.5C 277.436,232.558 279.603,230.558 282.5,229.5 Z"/></g>
<g><path style="opacity:0.952" fill="#a5ceff" d="M 104.5,269.5 C 120.262,269.936 135.929,271.436 151.5,274C 158.743,275.652 162.909,280.152 164,287.5C 165.257,302.855 163.59,317.855 159,332.5C 156.239,336.534 152.406,338.701 147.5,339C 139.149,339.706 130.816,339.539 122.5,338.5C 116.416,338.417 113.583,341.417 114,347.5C 113.5,356.16 113.334,364.827 113.5,373.5C 124.245,373.071 134.912,373.571 145.5,375C 151.467,378.392 152.967,383.226 150,389.5C 148.048,391.894 145.548,393.394 142.5,394C 132.5,394.667 122.5,394.667 112.5,394C 103.721,394.203 97.5547,390.369 94,382.5C 93.3333,367.167 93.3333,351.833 94,336.5C 99.0021,323.985 108.335,317.652 122,317.5C 128.477,318.298 134.977,318.632 141.5,318.5C 142.971,310.24 143.638,301.906 143.5,293.5C 132.853,292.369 122.186,291.369 111.5,290.5C 106.081,291.579 100.748,291.412 95.5,290C 90.1667,284 90.1667,278 95.5,272C 98.6282,271.159 101.628,270.325 104.5,269.5 Z"/></g>
<g><path style="opacity:0.948" fill="#000000" d="M 362.5,315.5 C 379.936,315.807 391.769,324.14 398,340.5C 409.68,363.639 405.18,382.806 384.5,398C 371.681,405.302 358.014,407.302 343.5,404C 339.127,402.287 335.293,399.787 332,396.5C 324.446,385.727 318.78,374.06 315,361.5C 316.466,341.674 326.3,327.507 344.5,319C 350.581,317.503 356.581,316.336 362.5,315.5 Z M 360.5,336.5 C 367.094,335.767 372.26,338.101 376,343.5C 379.299,350.732 381.799,358.232 383.5,366C 377.333,380.588 366.333,386.588 350.5,384C 343.589,376.356 338.589,367.522 335.5,357.5C 340.001,345.645 348.334,338.645 360.5,336.5 Z"/></g>
</svg>
