<?xml version="1.0" encoding="UTF-8"?>
<!DOCTYPE svg PUBLIC "-//W3C//DTD SVG 1.1//EN" "http://www.w3.org/Graphics/SVG/1.1/DTD/svg11.dtd">
<svg xmlns="http://www.w3.org/2000/svg" version="1.1" width="512px" height="512px" style="shape-rendering:geometricPrecision; text-rendering:geometricPrecision; image-rendering:optimizeQuality; fill-rule:evenodd; clip-rule:evenodd" xmlns:xlink="http://www.w3.org/1999/xlink">
<g><path style="opacity:0.949" fill="#000000" d="M 260.5,79.5 C 256.869,78.588 253.203,78.4213 249.5,79C 242.494,83.0047 235.161,86.1714 227.5,88.5C 226.833,88.5 226.5,88.8333 226.5,89.5C 225.833,89.5 225.167,89.5 224.5,89.5C 223.833,89.5 223.5,89.8333 223.5,90.5C 223.167,90.5 222.833,90.5 222.5,90.5C 213.833,92.8333 205.167,95.1667 196.5,97.5C 190.62,91.326 184.453,90.9927 178,96.5C 176.748,99.0135 176.248,101.68 176.5,104.5C 156.422,110.248 136.756,117.081 117.5,125C 153.843,148.858 189.176,174.025 223.5,200.5C 225.028,206.021 228.694,209.021 234.5,209.5C 240.146,214.479 245.479,219.812 250.5,225.5C 257.179,221.159 264.179,217.325 271.5,214C 321.004,194.943 371.004,177.276 421.5,161C 422.833,160.333 424.167,159.667 425.5,159C 426.96,155.911 428.793,153.078 431,150.5C 434,148.167 437,145.833 440,143.5C 440.667,142.833 440.667,142.167 440,141.5C 437.167,138.667 434.333,135.833 431.5,133C 398.468,110.893 366.968,86.7261 337,60.5C 333.282,47.22 338.115,42.0533 351.5,45C 381.905,71.0288 413.571,95.3621 446.5,118C 455.135,126.295 462.635,135.462 469,145.5C 470.337,149.026 470.837,152.692 470.5,156.5C 468.405,155.588 466.405,154.421 464.5,153C 463.167,152.833 461.833,152.667 460.5,152.5C 455.694,153.491 451.027,154.991 446.5,157C 426.256,166.122 406.256,175.789 386.5,186C 363.167,196 339.833,206 316.5,216C 315.614,217.615 314.614,219.115 313.5,220.5C 294.432,226.703 276.099,234.536 258.5,244C 257,246.833 254.833,249 252,250.5C 252.76,261.176 253.927,271.843 255.5,282.5C 247.1,290.423 247.767,297.423 257.5,303.5C 258.329,319.819 258.662,336.152 258.5,352.5C 288.146,344.339 317.812,336.673 347.5,329.5C 351.31,331.31 355.31,331.81 359.5,331C 366.078,328.209 372.745,325.709 379.5,323.5C 380.167,323.5 380.5,323.167 380.5,322.5C 381.167,322.5 381.833,322.5 382.5,322.5C 394.209,320.239 405.542,316.739 416.5,312C 418.179,309.435 418.846,306.602 418.5,303.5C 422.32,300.53 426.32,297.696 430.5,295C 438.262,285.577 436.928,278.077 426.5,272.5C 432.552,242.907 438.219,213.24 443.5,183.5C 450.943,179.277 458.61,175.277 466.5,171.5C 459.722,216.612 450.722,261.279 439.5,305.5C 445.073,305.556 450.74,305.723 456.5,306C 462.984,307.798 465.151,311.965 463,318.5C 461.5,320 460,321.5 458.5,323C 448.029,326.304 437.362,328.97 426.5,331C 417.833,334 409.167,337 400.5,340C 364.296,347.441 328.296,355.774 292.5,365C 277.786,368.905 263.286,373.405 249,378.5C 244.284,378.715 240.951,376.715 239,372.5C 238.712,356.923 238.212,341.256 237.5,325.5C 239.795,322.703 242.295,320.036 245,317.5C 249.448,310.218 247.948,304.718 240.5,301C 245.993,291.492 243.827,284.326 234,279.5C 233.649,274.802 233.149,270.136 232.5,265.5C 230.933,254.901 229.767,244.234 229,233.5C 185.181,197.462 139.681,164.128 92.5,133.5C 93.0224,167.063 90.6891,200.396 85.5,233.5C 82.8557,236.994 80.3557,240.66 78,244.5C 77.3333,246.833 77.3333,249.167 78,251.5C 79.4213,253.405 80.588,255.405 81.5,257.5C 81.5,258.167 81.5,258.833 81.5,259.5C 80.8333,259.5 80.5,259.833 80.5,260.5C 77.1796,264.463 74.3463,268.796 72,273.5C 71.508,286.314 77.6747,291.148 90.5,288C 91.745,287.209 93.0783,286.709 94.5,286.5C 135.091,307.796 175.424,329.63 215.5,352C 221.287,354.894 227.287,357.227 233.5,359C 237.749,363.546 238.582,368.713 236,374.5C 232.548,378.046 228.382,379.213 223.5,378C 219.757,376.864 216.09,375.53 212.5,374C 166.992,349.412 121.325,325.079 75.5,301C 68.7658,297.586 62.5991,293.419 57,288.5C 55.4661,284.289 55.1327,279.956 56,275.5C 68.8829,219.908 74.2163,163.575 72,106.5C 72.4928,99.2032 74.1594,92.2032 77,85.5C 80,81.5 83,81.5 86,85.5C 89.4305,93.8186 91.2638,102.485 91.5,111.5C 161.36,85.2702 232.694,63.7702 305.5,47C 314.078,44.9642 322.744,43.9642 331.5,44C 333.41,44.4083 334.41,45.5749 334.5,47.5C 333.781,49.7277 332.448,51.561 330.5,53C 307.777,63.5176 284.444,72.3509 260.5,79.5 Z M 222.5,90.5 C 214.38,94.7252 206.046,98.7252 197.5,102.5C 196.548,100.955 196.215,99.288 196.5,97.5C 205.167,95.1667 213.833,92.8333 222.5,90.5 Z M 176.5,104.5 C 176.933,107.195 178.266,109.362 180.5,111C 173.835,115.977 172.835,121.977 177.5,129C 179.9,130.701 182.567,131.534 185.5,131.5C 216.467,123.342 247.467,115.342 278.5,107.5C 257.536,120.321 235.869,132.155 213.5,143C 208.224,145.888 203.391,149.388 199,153.5C 196.159,163.148 199.659,168.815 209.5,170.5C 227.92,167.216 246.253,163.549 264.5,159.5C 265.252,162.263 266.252,164.93 267.5,167.5C 255.386,173.057 243.386,178.89 231.5,185C 224.998,188.171 222.331,193.337 223.5,200.5C 189.176,174.025 153.843,148.858 117.5,125C 136.756,117.081 156.422,110.248 176.5,104.5 Z M 232.5,265.5 C 227.735,258.462 221.069,255.795 212.5,257.5C 211.869,247.366 206.536,242.866 196.5,244C 193.479,245.18 190.479,246.346 187.5,247.5C 190.94,237.036 187.274,231.036 176.5,229.5C 171.68,230.038 167.013,231.205 162.5,233C 147.27,239.455 132.27,246.121 117.5,253C 122.104,248.397 125.938,243.23 129,237.5C 130.392,232.126 129.225,227.459 125.5,223.5C 131.808,214.692 138.308,206.025 145,197.5C 148.592,191.899 148.092,186.732 143.5,182C 135.312,178.463 129.146,180.629 125,188.5C 124.871,182.086 124.204,175.753 123,169.5C 119.22,163.61 114.053,162.11 107.5,165C 105.951,166.214 104.785,167.714 104,169.5C 104.661,185.571 103.661,201.571 101,217.5C 95.6028,222.729 90.4361,228.062 85.5,233.5C 90.6891,200.396 93.0224,167.063 92.5,133.5C 139.681,164.128 185.181,197.462 229,233.5C 229.767,244.234 230.933,254.901 232.5,265.5 Z M 443.5,183.5 C 438.219,213.24 432.552,242.907 426.5,272.5C 417.453,271.967 408.453,272.8 399.5,275C 384.063,278.869 368.729,283.036 353.5,287.5C 355.23,280.511 352.897,275.677 346.5,273C 355.678,266.577 364.678,259.911 373.5,253C 378.232,246.958 378.566,240.791 374.5,234.5C 370.463,231.905 366.13,231.072 361.5,232C 363.101,228.733 363.934,225.233 364,221.5C 389.621,207.014 416.121,194.347 443.5,183.5 Z M 313.5,220.5 C 312.989,222.195 312.322,223.861 311.5,225.5C 297.048,233.127 283.548,242.127 271,252.5C 267.13,261.188 269.63,267.021 278.5,270C 271.099,274.7 263.432,278.866 255.5,282.5C 253.927,271.843 252.76,261.176 252,250.5C 254.833,249 257,246.833 258.5,244C 276.099,234.536 294.432,226.703 313.5,220.5 Z M 81.5,257.5 C 83.9327,257.786 83.9327,258.452 81.5,259.5C 81.5,258.833 81.5,258.167 81.5,257.5 Z M 347.5,329.5 C 317.812,336.673 288.146,344.339 258.5,352.5C 258.662,336.152 258.329,319.819 257.5,303.5C 260.271,303.579 262.937,303.079 265.5,302C 274.217,296.806 283.217,292.473 292.5,289C 288.474,298.594 291.641,303.761 302,304.5C 305.333,304.577 308.5,303.91 311.5,302.5C 311.447,314.953 317.447,319.786 329.5,317C 333.5,315.833 337.5,314.667 341.5,313.5C 343.272,314.36 344.605,315.693 345.5,317.5C 344.002,321.846 344.669,325.846 347.5,329.5 Z M 418.5,303.5 C 418.846,306.602 418.179,309.435 416.5,312C 405.542,316.739 394.209,320.239 382.5,322.5C 392.021,317.15 402.021,312.65 412.5,309C 413.752,306.308 415.752,304.475 418.5,303.5 Z"/></g>
<g><path style="opacity:0.964" fill="#9cc9fe" d="M 260.5,79.5 C 262.871,81.9966 263.871,84.9966 263.5,88.5C 278.158,84.8684 292.991,82.2018 308,80.5C 319.78,81.6033 324.78,87.9367 323,99.5C 319.869,103.633 316.369,107.466 312.5,111C 299.002,119.916 285.336,128.583 271.5,137C 275.872,137.421 280.205,138.088 284.5,139C 288.006,141.34 291.006,144.174 293.5,147.5C 308.539,142.991 323.872,140.491 339.5,140C 348.424,141.927 352.257,147.427 351,156.5C 347.64,162.693 342.807,167.36 336.5,170.5C 335.142,177.357 331.142,181.857 324.5,184C 302.365,191.934 280.031,199.267 257.5,206C 249.971,208.14 242.304,209.306 234.5,209.5C 228.694,209.021 225.028,206.021 223.5,200.5C 222.331,193.337 224.998,188.171 231.5,185C 243.386,178.89 255.386,173.057 267.5,167.5C 266.252,164.93 265.252,162.263 264.5,159.5C 246.253,163.549 227.92,167.216 209.5,170.5C 199.659,168.815 196.159,163.148 199,153.5C 203.391,149.388 208.224,145.888 213.5,143C 235.869,132.155 257.536,120.321 278.5,107.5C 247.467,115.342 216.467,123.342 185.5,131.5C 182.567,131.534 179.9,130.701 177.5,129C 172.835,121.977 173.835,115.977 180.5,111C 178.266,109.362 176.933,107.195 176.5,104.5C 176.248,101.68 176.748,99.0135 178,96.5C 184.453,90.9927 190.62,91.326 196.5,97.5C 196.215,99.288 196.548,100.955 197.5,102.5C 206.046,98.7252 214.38,94.7252 222.5,90.5C 222.833,90.5 223.167,90.5 223.5,90.5C 224.167,90.5 224.5,90.1667 224.5,89.5C 225.167,89.5 225.833,89.5 226.5,89.5C 227.167,89.5 227.5,89.1667 227.5,88.5C 235.161,86.1714 242.494,83.0047 249.5,79C 253.203,78.4213 256.869,78.588 260.5,79.5 Z"/></g>
<g><path style="opacity:0.976" fill="#9cc9fe" d="M 470.5,156.5 C 472.666,162.57 471.332,167.57 466.5,171.5C 458.61,175.277 450.943,179.277 443.5,183.5C 416.121,194.347 389.621,207.014 364,221.5C 363.934,225.233 363.101,228.733 361.5,232C 366.13,231.072 370.463,231.905 374.5,234.5C 378.566,240.791 378.232,246.958 373.5,253C 364.678,259.911 355.678,266.577 346.5,273C 352.897,275.677 355.23,280.511 353.5,287.5C 368.729,283.036 384.063,278.869 399.5,275C 408.453,272.8 417.453,271.967 426.5,272.5C 436.928,278.077 438.262,285.577 430.5,295C 426.32,297.696 422.32,300.53 418.5,303.5C 415.752,304.475 413.752,306.308 412.5,309C 402.021,312.65 392.021,317.15 382.5,322.5C 381.833,322.5 381.167,322.5 380.5,322.5C 379.833,322.5 379.5,322.833 379.5,323.5C 372.745,325.709 366.078,328.209 359.5,331C 355.31,331.81 351.31,331.31 347.5,329.5C 344.669,325.846 344.002,321.846 345.5,317.5C 344.605,315.693 343.272,314.36 341.5,313.5C 337.5,314.667 333.5,315.833 329.5,317C 317.447,319.786 311.447,314.953 311.5,302.5C 308.5,303.91 305.333,304.577 302,304.5C 291.641,303.761 288.474,298.594 292.5,289C 283.217,292.473 274.217,296.806 265.5,302C 262.937,303.079 260.271,303.579 257.5,303.5C 247.767,297.423 247.1,290.423 255.5,282.5C 263.432,278.866 271.099,274.7 278.5,270C 269.63,267.021 267.13,261.188 271,252.5C 283.548,242.127 297.048,233.127 311.5,225.5C 312.322,223.861 312.989,222.195 313.5,220.5C 314.614,219.115 315.614,217.615 316.5,216C 339.833,206 363.167,196 386.5,186C 406.256,175.789 426.256,166.122 446.5,157C 451.027,154.991 455.694,153.491 460.5,152.5C 461.833,152.667 463.167,152.833 464.5,153C 466.405,154.421 468.405,155.588 470.5,156.5 Z"/></g>
<g><path style="opacity:0.969" fill="#9cc9fe" d="M 187.5,247.5 C 190.479,246.346 193.479,245.18 196.5,244C 206.536,242.866 211.869,247.366 212.5,257.5C 221.069,255.795 227.735,258.462 232.5,265.5C 233.149,270.136 233.649,274.802 234,279.5C 243.827,284.326 245.993,291.492 240.5,301C 247.948,304.718 249.448,310.218 245,317.5C 242.295,320.036 239.795,322.703 237.5,325.5C 231.431,331.243 224.431,332.743 216.5,330C 212.388,325.996 210.888,321.163 212,315.5C 213.479,309.897 215.646,304.564 218.5,299.5C 213.685,294.564 211.519,288.564 212,281.5C 207.258,285.454 202.424,289.287 197.5,293C 187.372,299.387 180.372,297.053 176.5,286C 177.409,284.211 177.576,282.377 177,280.5C 165.358,289.481 153.191,297.647 140.5,305C 130.648,306.649 125.982,302.482 126.5,292.5C 121.511,292.682 118.345,290.349 117,285.5C 116.788,282.668 116.621,280.002 116.5,277.5C 109.452,281.291 102.119,284.291 94.5,286.5C 93.0783,286.709 91.745,287.209 90.5,288C 77.6747,291.148 71.508,286.314 72,273.5C 74.3463,268.796 77.1796,264.463 80.5,260.5C 81.1667,260.5 81.5,260.167 81.5,259.5C 83.9327,258.452 83.9327,257.786 81.5,257.5C 80.588,255.405 79.4213,253.405 78,251.5C 77.3333,249.167 77.3333,246.833 78,244.5C 80.3557,240.66 82.8557,236.994 85.5,233.5C 90.4361,228.062 95.6028,222.729 101,217.5C 103.661,201.571 104.661,185.571 104,169.5C 104.785,167.714 105.951,166.214 107.5,165C 114.053,162.11 119.22,163.61 123,169.5C 124.204,175.753 124.871,182.086 125,188.5C 129.146,180.629 135.312,178.463 143.5,182C 148.092,186.732 148.592,191.899 145,197.5C 138.308,206.025 131.808,214.692 125.5,223.5C 129.225,227.459 130.392,232.126 129,237.5C 125.938,243.23 122.104,248.397 117.5,253C 132.27,246.121 147.27,239.455 162.5,233C 167.013,231.205 171.68,230.038 176.5,229.5C 187.274,231.036 190.94,237.036 187.5,247.5 Z"/></g>
</svg>
