<?xml version="1.0" encoding="UTF-8"?>
<!DOCTYPE svg PUBLIC "-//W3C//DTD SVG 1.1//EN" "http://www.w3.org/Graphics/SVG/1.1/DTD/svg11.dtd">
<svg xmlns="http://www.w3.org/2000/svg" version="1.1" width="512px" height="512px" style="shape-rendering:geometricPrecision; text-rendering:geometricPrecision; image-rendering:optimizeQuality; fill-rule:evenodd; clip-rule:evenodd" xmlns:xlink="http://www.w3.org/1999/xlink">
<g><path style="opacity:0.952" fill="#000000" d="M 89.5,90.5 C 98.114,89.6182 102.447,93.4516 102.5,102C 99.9205,154.834 97.0872,207.668 94,260.5C 92.9213,286.315 86.7547,310.815 75.5,334C 102.191,334.109 128.524,330.942 154.5,324.5C 147.432,321.055 143.265,315.388 142,307.5C 138.241,288.71 141.574,271.376 152,255.5C 165.003,240.651 180.003,237.651 197,246.5C 198.997,229.559 200.331,212.559 201,195.5C 205.34,189.136 210.84,187.969 217.5,192C 218.701,192.903 219.535,194.069 220,195.5C 220.236,218.514 220.902,241.514 222,264.5C 223.012,276.561 225.678,288.227 230,299.5C 231.073,300.28 232.24,300.113 233.5,299C 239.167,294.667 244.833,290.333 250.5,286C 261.793,283.715 265.96,288.215 263,299.5C 255.993,310.502 246.159,317.669 233.5,321C 224.779,322.616 217.945,319.783 213,312.5C 209.279,305.503 206.446,298.17 204.5,290.5C 198.752,299.748 191.752,307.914 183.5,315C 176.687,320.238 169.021,323.572 160.5,325C 169.657,327.481 172.157,332.981 168,341.5C 166.421,343.041 164.587,344.208 162.5,345C 140.381,349.645 118.047,352.645 95.5,354C 84.5,354.667 73.5,354.667 62.5,354C 54.0076,351.184 50.5076,345.351 52,336.5C 62.0788,316.596 68.7455,295.596 72,273.5C 75.7297,220.888 78.3963,168.222 80,115.5C 80.2785,109.043 81.2785,102.71 83,96.5C 84.4361,93.5581 86.6028,91.5581 89.5,90.5 Z M 176.5,262.5 C 178.989,262.298 181.323,262.798 183.5,264C 185.892,266.728 187.892,269.728 189.5,273C 183.792,285.535 175.126,295.368 163.5,302.5C 160.001,290.835 161.501,279.835 168,269.5C 170.441,266.546 173.275,264.213 176.5,262.5 Z"/></g>
<g><path style="opacity:0.95" fill="#000000" d="M 303.5,200.5 C 309.094,199.743 313.261,201.743 316,206.5C 316.332,217.511 316.332,228.511 316,239.5C 320.073,231.86 325.24,225.026 331.5,219C 342.95,212.154 352.783,213.987 361,224.5C 368.41,239.788 371.577,255.955 370.5,273C 370.532,281.206 370.032,289.372 369,297.5C 367.867,302.277 365.367,306.11 361.5,309C 354.587,311.088 350.42,308.588 349,301.5C 348.693,291.916 349.193,282.416 350.5,273C 349.771,265.539 348.938,258.039 348,250.5C 347.386,245.823 345.886,241.489 343.5,237.5C 335.593,246.292 329.426,256.292 325,267.5C 319.606,281.013 314.606,294.68 310,308.5C 304.603,313.396 298.936,313.729 293,309.5C 291.767,307.134 290.934,304.634 290.5,302C 293.618,271.585 295.451,241.085 296,210.5C 296.501,205.518 299.001,202.185 303.5,200.5 Z"/></g>
<g><path style="opacity:0.952" fill="#000000" d="M 403.5,220.5 C 409.947,219.42 415.613,220.92 420.5,225C 426.846,232.52 431.512,241.02 434.5,250.5C 441.76,250.275 446.26,253.609 448,260.5C 448.285,290.459 444.118,319.792 435.5,348.5C 436.594,359.066 438.761,369.399 442,379.5C 445.557,381.95 449.557,382.95 454,382.5C 465.738,381.619 477.238,379.452 488.5,376C 493.945,374.781 498.778,375.948 503,379.5C 505.732,385.559 504.232,390.392 498.5,394C 479.48,401.783 459.813,404.449 439.5,402C 433.588,400.462 428.755,397.295 425,392.5C 421.887,386.497 419.553,380.164 418,373.5C 406.386,385.454 393.886,396.287 380.5,406C 372.68,408.247 366.514,406.081 362,399.5C 350.413,368.593 358.58,344.427 386.5,327C 395.991,320.832 406.324,318.166 417.5,319C 418.766,319.309 419.933,319.809 421,320.5C 422.939,313.594 423.939,306.594 424,299.5C 401.824,310.674 388.491,304.008 384,279.5C 380.976,261.715 383.976,245.048 393,229.5C 396.103,225.886 399.603,222.886 403.5,220.5 Z M 407.5,245.5 C 409.888,246.219 411.388,247.885 412,250.5C 414.459,257 416.126,263.667 417,270.5C 418.319,272.487 420.152,273.654 422.5,274C 418.503,279.496 413.169,282.662 406.5,283.5C 405.038,277.938 404.038,272.271 403.5,266.5C 404.094,259.339 405.427,252.339 407.5,245.5 Z M 408.5,339.5 C 410.99,340.108 412.324,341.775 412.5,344.5C 410.853,348.459 408.686,352.125 406,355.5C 397.803,364.031 389.303,372.198 380.5,380C 379.552,380.483 378.552,380.649 377.5,380.5C 376.655,366.024 382.321,354.857 394.5,347C 399.101,344.202 403.768,341.702 408.5,339.5 Z"/></g>
</svg>
